<svg xmlns="http://www.w3.org/2000/svg" xmlns:xlink="http://www.w3.org/1999/xlink" width="500" zoomAndPan="magnify" viewBox="0 0 375 374.999991" height="500" preserveAspectRatio="xMidYMid meet" version="1.2"><defs><clipPath id="5814777084"><path d="M 103.71875 95.988281 L 253 95.988281 L 253 236 L 103.71875 236 Z M 103.71875 95.988281 "/></clipPath><clipPath id="dc6c1e4f24"><path d="M 46.683594 38.957031 L 150 38.957031 L 150 143 L 46.683594 143 Z M 46.683594 38.957031 "/></clipPath><clipPath id="cd90070609"><path d="M 57 49 L 162.175781 49 L 162.175781 154.445312 L 57 154.445312 Z M 57 49 "/></clipPath></defs><g id="c2a6ee7f10"><rect x="0" width="375" y="0" height="374.999991" style="fill:#ffffff;fill-opacity:1;stroke:none;"/><rect x="0" width="375" y="0" height="374.999991" style="fill:#0f2555;fill-opacity:1;stroke:none;"/><path style=" stroke:none;fill-rule:nonzero;fill:#ffffff;fill-opacity:1;" d="M 256.359375 275.652344 C 278.195312 269.746094 295.890625 260.457031 309.429688 247.804688 C 322.953125 235.152344 329.726562 218.785156 329.726562 198.675781 L 329.726562 164.449219 L 253.421875 164.59375 L 253.421875 201.515625 C 253.421875 212.160156 248.449219 220.667969 238.507812 227.058594 C 228.566406 233.4375 214.300781 236.628906 195.710938 236.628906 L 179.816406 236.628906 L 179.816406 286.195312 L 226.078125 337.464844 L 314.117188 337.464844 L 256.359375 275.652344 "/><g clip-rule="nonzero" clip-path="url(#5814777084)"><path style=" stroke:none;fill-rule:nonzero;fill:#ffffff;fill-opacity:1;" d="M 252.699219 163.980469 L 252.699219 95.996094 L 103.769531 95.996094 L 103.769531 235.535156 L 179.09375 235.535156 L 179.09375 163.980469 L 252.699219 163.980469 "/></g><g clip-rule="nonzero" clip-path="url(#dc6c1e4f24)"><path style=" stroke:none;fill-rule:nonzero;fill:#b5b7bb;fill-opacity:1;" d="M 46.683594 38.957031 L 149.992188 38.957031 L 149.992188 65.730469 L 73.460938 65.730469 L 73.460938 142.261719 L 46.683594 142.261719 Z M 46.683594 38.957031 "/></g><g clip-rule="nonzero" clip-path="url(#cd90070609)"><path style=" stroke:none;fill-rule:nonzero;fill:#ffffff;fill-opacity:1;" d="M 57.285156 49.554688 L 162.175781 49.554688 L 162.175781 77.914062 L 85.683594 77.914062 L 85.683594 154.445312 L 57.324219 154.445312 L 57.324219 49.554688 Z M 160.59375 51.136719 L 58.867188 51.136719 L 58.867188 152.863281 L 84.0625 152.863281 L 84.0625 76.371094 L 160.59375 76.371094 Z M 160.59375 51.136719 "/></g></g></svg>