<svg xmlns="http://www.w3.org/2000/svg" xmlns:xlink="http://www.w3.org/1999/xlink" width="426" zoomAndPan="magnify" viewBox="0 0 319.5 83.249999" height="111" preserveAspectRatio="xMidYMid meet" version="1.0"><defs><g/><clipPath id="4a00e33848"><path d="M 12.847656 24.792969 L 43 24.792969 L 43 53 L 12.847656 53 Z M 12.847656 24.792969 " clip-rule="nonzero"/></clipPath><clipPath id="debfb971ad"><path d="M 1.46875 13.414062 L 23 13.414062 L 23 34 L 1.46875 34 Z M 1.46875 13.414062 " clip-rule="nonzero"/></clipPath><clipPath id="45795ffdcc"><path d="M 3 15 L 24.511719 15 L 24.511719 36.457031 L 3 36.457031 Z M 3 15 " clip-rule="nonzero"/></clipPath><clipPath id="6a522e2c6c"><rect x="0" width="234" y="0" height="15"/></clipPath></defs><path fill="#ffffff" d="M 43.304688 60.636719 C 47.660156 59.460938 51.191406 57.605469 53.890625 55.082031 C 56.589844 52.558594 57.941406 49.292969 57.941406 45.28125 L 57.941406 38.449219 L 42.71875 38.480469 L 42.71875 45.847656 C 42.71875 47.96875 41.726562 49.667969 39.742188 50.941406 C 37.757812 52.214844 34.910156 52.851562 31.203125 52.851562 L 28.03125 52.851562 L 28.03125 62.742188 L 37.261719 72.972656 L 54.828125 72.972656 L 43.304688 60.636719 " fill-opacity="1" fill-rule="nonzero"/><g clip-path="url(#4a00e33848)"><path fill="#ffffff" d="M 42.574219 38.355469 L 42.574219 24.792969 L 12.859375 24.792969 L 12.859375 52.632812 L 27.886719 52.632812 L 27.886719 38.355469 L 42.574219 38.355469 " fill-opacity="1" fill-rule="nonzero"/></g><g clip-path="url(#debfb971ad)"><path fill="#b5b7bb" d="M 1.179688 13.121094 L 22.050781 13.121094 L 22.050781 18.53125 L 6.589844 18.53125 L 6.589844 33.992188 L 1.179688 33.992188 Z M 1.179688 13.121094 " fill-opacity="1" fill-rule="nonzero"/></g><g clip-path="url(#45795ffdcc)"><path fill="#ffffff" d="M 3.320312 15.265625 L 24.511719 15.265625 L 24.511719 20.992188 L 9.058594 20.992188 L 9.058594 36.457031 L 3.328125 36.457031 L 3.328125 15.265625 Z M 24.191406 15.582031 L 3.640625 15.582031 L 3.640625 36.136719 L 8.730469 36.136719 L 8.730469 20.679688 L 24.191406 20.679688 Z M 24.191406 15.582031 " fill-opacity="1" fill-rule="nonzero"/></g><g fill="#b5b7bb" fill-opacity="1"><g transform="translate(68.66832, 57.071916)"><g><path d="M 24.453125 0 L 18.21875 -9.015625 L 11.328125 -9.015625 L 11.328125 0 L 3.84375 0 L 3.84375 -32.359375 L 17.84375 -32.359375 C 20.707031 -32.359375 23.195312 -31.878906 25.3125 -30.921875 C 27.425781 -29.972656 29.050781 -28.617188 30.1875 -26.859375 C 31.332031 -25.109375 31.90625 -23.03125 31.90625 -20.625 C 31.90625 -18.21875 31.328125 -16.144531 30.171875 -14.40625 C 29.015625 -12.664062 27.375 -11.332031 25.25 -10.40625 L 32.5 0 Z M 24.3125 -20.625 C 24.3125 -22.4375 23.726562 -23.828125 22.5625 -24.796875 C 21.394531 -25.773438 19.6875 -26.265625 17.4375 -26.265625 L 11.328125 -26.265625 L 11.328125 -14.984375 L 17.4375 -14.984375 C 19.6875 -14.984375 21.394531 -15.472656 22.5625 -16.453125 C 23.726562 -17.441406 24.3125 -18.832031 24.3125 -20.625 Z M 24.3125 -20.625 "/></g></g></g><g fill="#b5b7bb" fill-opacity="1"><g transform="translate(102.596833, 57.071916)"><g><path d="M 28.890625 -6.015625 L 28.890625 0 L 3.84375 0 L 3.84375 -32.359375 L 28.296875 -32.359375 L 28.296875 -26.359375 L 11.28125 -26.359375 L 11.28125 -19.328125 L 26.3125 -19.328125 L 26.3125 -13.5 L 11.28125 -13.5 L 11.28125 -6.015625 Z M 28.890625 -6.015625 "/></g></g></g><g fill="#b5b7bb" fill-opacity="1"><g transform="translate(133.567, 57.071916)"><g><path d="M 15.625 -12.71875 L 11.28125 -8.1875 L 11.28125 0 L 3.84375 0 L 3.84375 -32.359375 L 11.28125 -32.359375 L 11.28125 -17.25 L 25.609375 -32.359375 L 33.9375 -32.359375 L 20.53125 -17.9375 L 34.71875 0 L 25.984375 0 Z M 15.625 -12.71875 "/></g></g></g><g fill="#b5b7bb" fill-opacity="1"><g transform="translate(167.726638, 57.071916)"><g><path d="M 19.515625 0.5625 C 16.148438 0.5625 13.117188 -0.160156 10.421875 -1.609375 C 7.722656 -3.066406 5.609375 -5.066406 4.078125 -7.609375 C 2.554688 -10.148438 1.796875 -13.007812 1.796875 -16.1875 C 1.796875 -19.351562 2.554688 -22.207031 4.078125 -24.75 C 5.609375 -27.300781 7.722656 -29.300781 10.421875 -30.75 C 13.117188 -32.195312 16.148438 -32.921875 19.515625 -32.921875 C 22.867188 -32.921875 25.882812 -32.195312 28.5625 -30.75 C 31.25 -29.300781 33.363281 -27.300781 34.90625 -24.75 C 36.445312 -22.207031 37.21875 -19.351562 37.21875 -16.1875 C 37.21875 -13.007812 36.445312 -10.148438 34.90625 -7.609375 C 33.363281 -5.066406 31.25 -3.066406 28.5625 -1.609375 C 25.882812 -0.160156 22.867188 0.5625 19.515625 0.5625 Z M 19.515625 -5.828125 C 21.421875 -5.828125 23.144531 -6.265625 24.6875 -7.140625 C 26.226562 -8.015625 27.4375 -9.238281 28.3125 -10.8125 C 29.195312 -12.382812 29.640625 -14.175781 29.640625 -16.1875 C 29.640625 -18.1875 29.195312 -19.972656 28.3125 -21.546875 C 27.4375 -23.117188 26.226562 -24.34375 24.6875 -25.21875 C 23.144531 -26.09375 21.421875 -26.53125 19.515625 -26.53125 C 17.597656 -26.53125 15.867188 -26.09375 14.328125 -25.21875 C 12.785156 -24.34375 11.578125 -23.117188 10.703125 -21.546875 C 9.828125 -19.972656 9.390625 -18.1875 9.390625 -16.1875 C 9.390625 -14.175781 9.828125 -12.382812 10.703125 -10.8125 C 11.578125 -9.238281 12.785156 -8.015625 14.328125 -7.140625 C 15.867188 -6.265625 17.597656 -5.828125 19.515625 -5.828125 Z M 19.515625 -5.828125 "/></g></g></g><g fill="#ffffff" fill-opacity="1"><g transform="translate(206.702108, 57.071916)"><g><path d="M 10.546875 -26.265625 L 0.1875 -26.265625 L 0.1875 -32.359375 L 28.390625 -32.359375 L 28.390625 -26.265625 L 18.03125 -26.265625 L 18.03125 0 L 10.546875 0 Z M 10.546875 -26.265625 "/></g></g></g><g fill="#ffffff" fill-opacity="1"><g transform="translate(235.2224, 57.071916)"><g><path d="M 25.15625 -6.9375 L 10.125 -6.9375 L 7.265625 0 L -0.421875 0 L 14.015625 -32.359375 L 21.40625 -32.359375 L 35.875 0 L 28.015625 0 Z M 22.796875 -12.625 L 17.65625 -25.015625 L 12.53125 -12.625 Z M 22.796875 -12.625 "/></g></g></g><g fill="#ffffff" fill-opacity="1"><g transform="translate(270.583861, 57.071916)"><g><path d="M 24.234375 0 L 16.40625 -11.234375 L 8.734375 0 L 0.140625 0 L 12.109375 -16.453125 L 0.734375 -32.359375 L 9.25 -32.359375 L 16.6875 -21.875 L 24 -32.359375 L 32.09375 -32.359375 L 20.8125 -16.734375 L 32.875 0 Z M 24.234375 0 "/></g></g></g><g transform="matrix(1, 0, 0, 1, 71, 62)"><g clip-path="url(#6a522e2c6c)"><g fill="#ffffff" fill-opacity="1"><g transform="translate(0.651133, 10.579548)"><g><path d="M 6.40625 0 L 4.671875 -2.4375 C 4.484375 -2.414062 4.285156 -2.40625 4.078125 -2.40625 L 2.03125 -2.40625 L 2.03125 0 L 1.234375 0 L 1.234375 -7.578125 L 4.078125 -7.578125 C 5.035156 -7.578125 5.789062 -7.34375 6.34375 -6.875 C 6.894531 -6.414062 7.171875 -5.785156 7.171875 -4.984375 C 7.171875 -4.390625 7.019531 -3.890625 6.71875 -3.484375 C 6.414062 -3.078125 5.988281 -2.78125 5.4375 -2.59375 L 7.28125 0 Z M 4.046875 -3.09375 C 4.796875 -3.09375 5.367188 -3.253906 5.765625 -3.578125 C 6.160156 -3.910156 6.359375 -4.378906 6.359375 -4.984375 C 6.359375 -5.597656 6.160156 -6.066406 5.765625 -6.390625 C 5.367188 -6.722656 4.796875 -6.890625 4.046875 -6.890625 L 2.03125 -6.890625 L 2.03125 -3.09375 Z M 4.046875 -3.09375 "/></g></g></g><g fill="#ffffff" fill-opacity="1"><g transform="translate(8.474701, 10.579548)"><g><path d="M 6.59375 -0.6875 L 6.59375 0 L 1.234375 0 L 1.234375 -7.578125 L 6.4375 -7.578125 L 6.4375 -6.890625 L 2.03125 -6.890625 L 2.03125 -4.1875 L 5.953125 -4.1875 L 5.953125 -3.515625 L 2.03125 -3.515625 L 2.03125 -0.6875 Z M 6.59375 -0.6875 "/></g></g></g><g fill="#ffffff" fill-opacity="1"><g transform="translate(15.713931, 10.579548)"><g><path d="M 6.578125 -3.796875 L 7.34375 -3.796875 L 7.34375 -0.90625 C 6.988281 -0.59375 6.566406 -0.351562 6.078125 -0.1875 C 5.597656 -0.0195312 5.09375 0.0625 4.5625 0.0625 C 3.800781 0.0625 3.117188 -0.101562 2.515625 -0.4375 C 1.910156 -0.769531 1.429688 -1.226562 1.078125 -1.8125 C 0.734375 -2.40625 0.5625 -3.066406 0.5625 -3.796875 C 0.5625 -4.523438 0.734375 -5.179688 1.078125 -5.765625 C 1.429688 -6.347656 1.910156 -6.804688 2.515625 -7.140625 C 3.117188 -7.472656 3.800781 -7.640625 4.5625 -7.640625 C 5.144531 -7.640625 5.675781 -7.546875 6.15625 -7.359375 C 6.644531 -7.179688 7.054688 -6.910156 7.390625 -6.546875 L 6.890625 -6.046875 C 6.285156 -6.640625 5.523438 -6.9375 4.609375 -6.9375 C 3.992188 -6.9375 3.4375 -6.800781 2.9375 -6.53125 C 2.445312 -6.257812 2.0625 -5.878906 1.78125 -5.390625 C 1.5 -4.910156 1.359375 -4.378906 1.359375 -3.796875 C 1.359375 -3.203125 1.5 -2.664062 1.78125 -2.1875 C 2.0625 -1.707031 2.445312 -1.332031 2.9375 -1.0625 C 3.425781 -0.789062 3.976562 -0.65625 4.59375 -0.65625 C 5.375 -0.65625 6.035156 -0.847656 6.578125 -1.234375 Z M 6.578125 -3.796875 "/></g></g></g><g fill="#ffffff" fill-opacity="1"><g transform="translate(24.078539, 10.579548)"><g><path d="M 1.234375 -7.578125 L 2.03125 -7.578125 L 2.03125 0 L 1.234375 0 Z M 1.234375 -7.578125 "/></g></g></g><g fill="#ffffff" fill-opacity="1"><g transform="translate(27.346466, 10.579548)"><g><path d="M 3.328125 0.0625 C 2.765625 0.0625 2.222656 -0.0234375 1.703125 -0.203125 C 1.191406 -0.378906 0.796875 -0.617188 0.515625 -0.921875 L 0.828125 -1.53125 C 1.097656 -1.257812 1.457031 -1.039062 1.90625 -0.875 C 2.363281 -0.707031 2.835938 -0.625 3.328125 -0.625 C 4.003906 -0.625 4.507812 -0.742188 4.84375 -0.984375 C 5.1875 -1.234375 5.359375 -1.554688 5.359375 -1.953125 C 5.359375 -2.265625 5.265625 -2.507812 5.078125 -2.6875 C 4.898438 -2.863281 4.675781 -3 4.40625 -3.09375 C 4.132812 -3.195312 3.765625 -3.304688 3.296875 -3.421875 C 2.722656 -3.566406 2.265625 -3.703125 1.921875 -3.828125 C 1.585938 -3.960938 1.296875 -4.164062 1.046875 -4.4375 C 0.804688 -4.71875 0.6875 -5.09375 0.6875 -5.5625 C 0.6875 -5.945312 0.785156 -6.296875 0.984375 -6.609375 C 1.191406 -6.921875 1.503906 -7.171875 1.921875 -7.359375 C 2.347656 -7.546875 2.867188 -7.640625 3.484375 -7.640625 C 3.921875 -7.640625 4.34375 -7.578125 4.75 -7.453125 C 5.164062 -7.335938 5.53125 -7.175781 5.84375 -6.96875 L 5.5625 -6.328125 C 5.25 -6.535156 4.910156 -6.691406 4.546875 -6.796875 C 4.179688 -6.910156 3.828125 -6.96875 3.484375 -6.96875 C 2.816406 -6.96875 2.316406 -6.835938 1.984375 -6.578125 C 1.648438 -6.316406 1.484375 -5.988281 1.484375 -5.59375 C 1.484375 -5.28125 1.570312 -5.03125 1.75 -4.84375 C 1.9375 -4.664062 2.171875 -4.523438 2.453125 -4.421875 C 2.734375 -4.328125 3.109375 -4.222656 3.578125 -4.109375 C 4.128906 -3.972656 4.578125 -3.835938 4.921875 -3.703125 C 5.265625 -3.578125 5.554688 -3.378906 5.796875 -3.109375 C 6.035156 -2.835938 6.15625 -2.46875 6.15625 -2 C 6.15625 -1.613281 6.050781 -1.265625 5.84375 -0.953125 C 5.632812 -0.640625 5.316406 -0.390625 4.890625 -0.203125 C 4.460938 -0.0234375 3.941406 0.0625 3.328125 0.0625 Z M 3.328125 0.0625 "/></g></g></g><g fill="#ffffff" fill-opacity="1"><g transform="translate(34.00136, 10.579548)"><g><path d="M 2.703125 -6.890625 L 0.046875 -6.890625 L 0.046875 -7.578125 L 6.171875 -7.578125 L 6.171875 -6.890625 L 3.515625 -6.890625 L 3.515625 0 L 2.703125 0 Z M 2.703125 -6.890625 "/></g></g></g><g fill="#ffffff" fill-opacity="1"><g transform="translate(40.212598, 10.579548)"><g><path d="M 6.40625 0 L 4.671875 -2.4375 C 4.484375 -2.414062 4.285156 -2.40625 4.078125 -2.40625 L 2.03125 -2.40625 L 2.03125 0 L 1.234375 0 L 1.234375 -7.578125 L 4.078125 -7.578125 C 5.035156 -7.578125 5.789062 -7.34375 6.34375 -6.875 C 6.894531 -6.414062 7.171875 -5.785156 7.171875 -4.984375 C 7.171875 -4.390625 7.019531 -3.890625 6.71875 -3.484375 C 6.414062 -3.078125 5.988281 -2.78125 5.4375 -2.59375 L 7.28125 0 Z M 4.046875 -3.09375 C 4.796875 -3.09375 5.367188 -3.253906 5.765625 -3.578125 C 6.160156 -3.910156 6.359375 -4.378906 6.359375 -4.984375 C 6.359375 -5.597656 6.160156 -6.066406 5.765625 -6.390625 C 5.367188 -6.722656 4.796875 -6.890625 4.046875 -6.890625 L 2.03125 -6.890625 L 2.03125 -3.09375 Z M 4.046875 -3.09375 "/></g></g></g><g fill="#ffffff" fill-opacity="1"><g transform="translate(48.036165, 10.579548)"><g><path d="M 5.984375 -2.03125 L 1.765625 -2.03125 L 0.859375 0 L 0.015625 0 L 3.484375 -7.578125 L 4.28125 -7.578125 L 7.734375 0 L 6.890625 0 Z M 5.703125 -2.671875 L 3.875 -6.75 L 2.0625 -2.671875 Z M 5.703125 -2.671875 "/></g></g></g><g fill="#ffffff" fill-opacity="1"><g transform="translate(55.794796, 10.579548)"><g><path d="M 2.703125 -6.890625 L 0.046875 -6.890625 L 0.046875 -7.578125 L 6.171875 -7.578125 L 6.171875 -6.890625 L 3.515625 -6.890625 L 3.515625 0 L 2.703125 0 Z M 2.703125 -6.890625 "/></g></g></g><g fill="#ffffff" fill-opacity="1"><g transform="translate(62.006034, 10.579548)"><g><path d="M 1.234375 -7.578125 L 2.03125 -7.578125 L 2.03125 0 L 1.234375 0 Z M 1.234375 -7.578125 "/></g></g></g><g fill="#ffffff" fill-opacity="1"><g transform="translate(65.273961, 10.579548)"><g><path d="M 4.546875 0.0625 C 3.796875 0.0625 3.113281 -0.101562 2.5 -0.4375 C 1.894531 -0.769531 1.421875 -1.226562 1.078125 -1.8125 C 0.734375 -2.40625 0.5625 -3.066406 0.5625 -3.796875 C 0.5625 -4.523438 0.734375 -5.179688 1.078125 -5.765625 C 1.421875 -6.347656 1.894531 -6.804688 2.5 -7.140625 C 3.113281 -7.472656 3.796875 -7.640625 4.546875 -7.640625 C 5.296875 -7.640625 5.972656 -7.472656 6.578125 -7.140625 C 7.179688 -6.804688 7.65625 -6.347656 8 -5.765625 C 8.34375 -5.179688 8.515625 -4.523438 8.515625 -3.796875 C 8.515625 -3.066406 8.34375 -2.40625 8 -1.8125 C 7.65625 -1.226562 7.179688 -0.769531 6.578125 -0.4375 C 5.972656 -0.101562 5.296875 0.0625 4.546875 0.0625 Z M 4.546875 -0.65625 C 5.148438 -0.65625 5.691406 -0.789062 6.171875 -1.0625 C 6.648438 -1.332031 7.023438 -1.707031 7.296875 -2.1875 C 7.578125 -2.664062 7.71875 -3.203125 7.71875 -3.796875 C 7.71875 -4.378906 7.578125 -4.910156 7.296875 -5.390625 C 7.023438 -5.878906 6.648438 -6.257812 6.171875 -6.53125 C 5.691406 -6.800781 5.148438 -6.9375 4.546875 -6.9375 C 3.953125 -6.9375 3.410156 -6.800781 2.921875 -6.53125 C 2.429688 -6.257812 2.046875 -5.878906 1.765625 -5.390625 C 1.492188 -4.910156 1.359375 -4.378906 1.359375 -3.796875 C 1.359375 -3.203125 1.492188 -2.664062 1.765625 -2.1875 C 2.046875 -1.707031 2.429688 -1.332031 2.921875 -1.0625 C 3.410156 -0.789062 3.953125 -0.65625 4.546875 -0.65625 Z M 4.546875 -0.65625 "/></g></g></g><g fill="#ffffff" fill-opacity="1"><g transform="translate(74.352752, 10.579548)"><g><path d="M 7.5625 -7.578125 L 7.5625 0 L 6.90625 0 L 2.03125 -6.15625 L 2.03125 0 L 1.234375 0 L 1.234375 -7.578125 L 1.890625 -7.578125 L 6.78125 -1.421875 L 6.78125 -7.578125 Z M 7.5625 -7.578125 "/></g></g></g><g fill="#ffffff" fill-opacity="1"><g transform="translate(83.150196, 10.579548)"><g/></g></g><g fill="#ffffff" fill-opacity="1"><g transform="translate(85.985288, 10.579548)"><g><path d="M 1.234375 -8.03125 L 1.953125 -8.03125 L 1.953125 2.09375 L 1.234375 2.09375 Z M 1.234375 -8.03125 "/></g></g></g><g fill="#ffffff" fill-opacity="1"><g transform="translate(89.177471, 10.579548)"><g/></g></g><g fill="#ffffff" fill-opacity="1"><g transform="translate(92.012563, 10.579548)"><g><path d="M 4.53125 0.0625 C 3.78125 0.0625 3.101562 -0.101562 2.5 -0.4375 C 1.894531 -0.769531 1.421875 -1.226562 1.078125 -1.8125 C 0.734375 -2.40625 0.5625 -3.066406 0.5625 -3.796875 C 0.5625 -4.523438 0.734375 -5.179688 1.078125 -5.765625 C 1.421875 -6.347656 1.894531 -6.804688 2.5 -7.140625 C 3.101562 -7.472656 3.78125 -7.640625 4.53125 -7.640625 C 5.09375 -7.640625 5.613281 -7.546875 6.09375 -7.359375 C 6.570312 -7.171875 6.976562 -6.898438 7.3125 -6.546875 L 6.796875 -6.03125 C 6.203125 -6.632812 5.457031 -6.9375 4.5625 -6.9375 C 3.957031 -6.9375 3.410156 -6.796875 2.921875 -6.515625 C 2.429688 -6.242188 2.046875 -5.867188 1.765625 -5.390625 C 1.492188 -4.910156 1.359375 -4.378906 1.359375 -3.796875 C 1.359375 -3.203125 1.492188 -2.664062 1.765625 -2.1875 C 2.046875 -1.707031 2.429688 -1.332031 2.921875 -1.0625 C 3.410156 -0.789062 3.957031 -0.65625 4.5625 -0.65625 C 5.46875 -0.65625 6.210938 -0.957031 6.796875 -1.5625 L 7.3125 -1.046875 C 6.976562 -0.691406 6.570312 -0.414062 6.09375 -0.21875 C 5.613281 -0.03125 5.09375 0.0625 4.53125 0.0625 Z M 4.53125 0.0625 "/></g></g></g><g fill="#ffffff" fill-opacity="1"><g transform="translate(99.792835, 10.579548)"><g><path d="M 4.546875 0.0625 C 3.796875 0.0625 3.113281 -0.101562 2.5 -0.4375 C 1.894531 -0.769531 1.421875 -1.226562 1.078125 -1.8125 C 0.734375 -2.40625 0.5625 -3.066406 0.5625 -3.796875 C 0.5625 -4.523438 0.734375 -5.179688 1.078125 -5.765625 C 1.421875 -6.347656 1.894531 -6.804688 2.5 -7.140625 C 3.113281 -7.472656 3.796875 -7.640625 4.546875 -7.640625 C 5.296875 -7.640625 5.972656 -7.472656 6.578125 -7.140625 C 7.179688 -6.804688 7.65625 -6.347656 8 -5.765625 C 8.34375 -5.179688 8.515625 -4.523438 8.515625 -3.796875 C 8.515625 -3.066406 8.34375 -2.40625 8 -1.8125 C 7.65625 -1.226562 7.179688 -0.769531 6.578125 -0.4375 C 5.972656 -0.101562 5.296875 0.0625 4.546875 0.0625 Z M 4.546875 -0.65625 C 5.148438 -0.65625 5.691406 -0.789062 6.171875 -1.0625 C 6.648438 -1.332031 7.023438 -1.707031 7.296875 -2.1875 C 7.578125 -2.664062 7.71875 -3.203125 7.71875 -3.796875 C 7.71875 -4.378906 7.578125 -4.910156 7.296875 -5.390625 C 7.023438 -5.878906 6.648438 -6.257812 6.171875 -6.53125 C 5.691406 -6.800781 5.148438 -6.9375 4.546875 -6.9375 C 3.953125 -6.9375 3.410156 -6.800781 2.921875 -6.53125 C 2.429688 -6.257812 2.046875 -5.878906 1.765625 -5.390625 C 1.492188 -4.910156 1.359375 -4.378906 1.359375 -3.796875 C 1.359375 -3.203125 1.492188 -2.664062 1.765625 -2.1875 C 2.046875 -1.707031 2.429688 -1.332031 2.921875 -1.0625 C 3.410156 -0.789062 3.953125 -0.65625 4.546875 -0.65625 Z M 4.546875 -0.65625 "/></g></g></g><g fill="#ffffff" fill-opacity="1"><g transform="translate(108.871626, 10.579548)"><g><path d="M 9.109375 -7.578125 L 9.109375 0 L 8.34375 0 L 8.34375 -6.0625 L 5.359375 -0.96875 L 4.984375 -0.96875 L 2 -6.03125 L 2 0 L 1.234375 0 L 1.234375 -7.578125 L 1.890625 -7.578125 L 5.1875 -1.953125 L 8.453125 -7.578125 Z M 9.109375 -7.578125 "/></g></g></g><g fill="#ffffff" fill-opacity="1"><g transform="translate(119.205655, 10.579548)"><g><path d="M 4.078125 -7.578125 C 5.035156 -7.578125 5.789062 -7.34375 6.34375 -6.875 C 6.894531 -6.414062 7.171875 -5.785156 7.171875 -4.984375 C 7.171875 -4.171875 6.894531 -3.535156 6.34375 -3.078125 C 5.789062 -2.617188 5.035156 -2.390625 4.078125 -2.390625 L 2.03125 -2.390625 L 2.03125 0 L 1.234375 0 L 1.234375 -7.578125 Z M 4.046875 -3.09375 C 4.796875 -3.09375 5.367188 -3.253906 5.765625 -3.578125 C 6.160156 -3.910156 6.359375 -4.378906 6.359375 -4.984375 C 6.359375 -5.597656 6.160156 -6.066406 5.765625 -6.390625 C 5.367188 -6.722656 4.796875 -6.890625 4.046875 -6.890625 L 2.03125 -6.890625 L 2.03125 -3.09375 Z M 4.046875 -3.09375 "/></g></g></g><g fill="#ffffff" fill-opacity="1"><g transform="translate(126.975106, 10.579548)"><g><path d="M 1.234375 -7.578125 L 2.03125 -7.578125 L 2.03125 -0.6875 L 6.28125 -0.6875 L 6.28125 0 L 1.234375 0 Z M 1.234375 -7.578125 "/></g></g></g><g fill="#ffffff" fill-opacity="1"><g transform="translate(133.348652, 10.579548)"><g><path d="M 1.234375 -7.578125 L 2.03125 -7.578125 L 2.03125 0 L 1.234375 0 Z M 1.234375 -7.578125 "/></g></g></g><g fill="#ffffff" fill-opacity="1"><g transform="translate(136.616579, 10.579548)"><g><path d="M 5.984375 -2.03125 L 1.765625 -2.03125 L 0.859375 0 L 0.015625 0 L 3.484375 -7.578125 L 4.28125 -7.578125 L 7.734375 0 L 6.890625 0 Z M 5.703125 -2.671875 L 3.875 -6.75 L 2.0625 -2.671875 Z M 5.703125 -2.671875 "/></g></g></g><g fill="#ffffff" fill-opacity="1"><g transform="translate(144.37521, 10.579548)"><g><path d="M 7.5625 -7.578125 L 7.5625 0 L 6.90625 0 L 2.03125 -6.15625 L 2.03125 0 L 1.234375 0 L 1.234375 -7.578125 L 1.890625 -7.578125 L 6.78125 -1.421875 L 6.78125 -7.578125 Z M 7.5625 -7.578125 "/></g></g></g><g fill="#ffffff" fill-opacity="1"><g transform="translate(153.172653, 10.579548)"><g><path d="M 4.53125 0.0625 C 3.78125 0.0625 3.101562 -0.101562 2.5 -0.4375 C 1.894531 -0.769531 1.421875 -1.226562 1.078125 -1.8125 C 0.734375 -2.40625 0.5625 -3.066406 0.5625 -3.796875 C 0.5625 -4.523438 0.734375 -5.179688 1.078125 -5.765625 C 1.421875 -6.347656 1.894531 -6.804688 2.5 -7.140625 C 3.101562 -7.472656 3.78125 -7.640625 4.53125 -7.640625 C 5.09375 -7.640625 5.613281 -7.546875 6.09375 -7.359375 C 6.570312 -7.171875 6.976562 -6.898438 7.3125 -6.546875 L 6.796875 -6.03125 C 6.203125 -6.632812 5.457031 -6.9375 4.5625 -6.9375 C 3.957031 -6.9375 3.410156 -6.796875 2.921875 -6.515625 C 2.429688 -6.242188 2.046875 -5.867188 1.765625 -5.390625 C 1.492188 -4.910156 1.359375 -4.378906 1.359375 -3.796875 C 1.359375 -3.203125 1.492188 -2.664062 1.765625 -2.1875 C 2.046875 -1.707031 2.429688 -1.332031 2.921875 -1.0625 C 3.410156 -0.789062 3.957031 -0.65625 4.5625 -0.65625 C 5.46875 -0.65625 6.210938 -0.957031 6.796875 -1.5625 L 7.3125 -1.046875 C 6.976562 -0.691406 6.570312 -0.414062 6.09375 -0.21875 C 5.613281 -0.03125 5.09375 0.0625 4.53125 0.0625 Z M 4.53125 0.0625 "/></g></g></g><g fill="#ffffff" fill-opacity="1"><g transform="translate(160.952925, 10.579548)"><g><path d="M 6.59375 -0.6875 L 6.59375 0 L 1.234375 0 L 1.234375 -7.578125 L 6.4375 -7.578125 L 6.4375 -6.890625 L 2.03125 -6.890625 L 2.03125 -4.1875 L 5.953125 -4.1875 L 5.953125 -3.515625 L 2.03125 -3.515625 L 2.03125 -0.6875 Z M 6.59375 -0.6875 "/></g></g></g><g fill="#ffffff" fill-opacity="1"><g transform="translate(168.192155, 10.579548)"><g/></g></g><g fill="#ffffff" fill-opacity="1"><g transform="translate(171.027247, 10.579548)"><g><path d="M 1.234375 -8.03125 L 1.953125 -8.03125 L 1.953125 2.09375 L 1.234375 2.09375 Z M 1.234375 -8.03125 "/></g></g></g><g fill="#ffffff" fill-opacity="1"><g transform="translate(174.219431, 10.579548)"><g/></g></g><g fill="#ffffff" fill-opacity="1"><g transform="translate(177.054522, 10.579548)"><g><path d="M 2.703125 -6.890625 L 0.046875 -6.890625 L 0.046875 -7.578125 L 6.171875 -7.578125 L 6.171875 -6.890625 L 3.515625 -6.890625 L 3.515625 0 L 2.703125 0 Z M 2.703125 -6.890625 "/></g></g></g><g fill="#ffffff" fill-opacity="1"><g transform="translate(183.26576, 10.579548)"><g><path d="M 5.984375 -2.03125 L 1.765625 -2.03125 L 0.859375 0 L 0.015625 0 L 3.484375 -7.578125 L 4.28125 -7.578125 L 7.734375 0 L 6.890625 0 Z M 5.703125 -2.671875 L 3.875 -6.75 L 2.0625 -2.671875 Z M 5.703125 -2.671875 "/></g></g></g><g fill="#ffffff" fill-opacity="1"><g transform="translate(191.024391, 10.579548)"><g><path d="M 5.984375 0 L 3.546875 -3.328125 L 1.109375 0 L 0.1875 0 L 3.0625 -3.890625 L 0.375 -7.578125 L 1.28125 -7.578125 L 3.578125 -4.484375 L 5.84375 -7.578125 L 6.71875 -7.578125 L 4.03125 -3.921875 L 6.921875 0 Z M 5.984375 0 "/></g></g></g><g fill="#ffffff" fill-opacity="1"><g transform="translate(198.122954, 10.579548)"><g><path d="M 5.984375 -2.03125 L 1.765625 -2.03125 L 0.859375 0 L 0.015625 0 L 3.484375 -7.578125 L 4.28125 -7.578125 L 7.734375 0 L 6.890625 0 Z M 5.703125 -2.671875 L 3.875 -6.75 L 2.0625 -2.671875 Z M 5.703125 -2.671875 "/></g></g></g><g fill="#ffffff" fill-opacity="1"><g transform="translate(205.881585, 10.579548)"><g><path d="M 2.703125 -6.890625 L 0.046875 -6.890625 L 0.046875 -7.578125 L 6.171875 -7.578125 L 6.171875 -6.890625 L 3.515625 -6.890625 L 3.515625 0 L 2.703125 0 Z M 2.703125 -6.890625 "/></g></g></g><g fill="#ffffff" fill-opacity="1"><g transform="translate(212.092822, 10.579548)"><g><path d="M 1.234375 -7.578125 L 2.03125 -7.578125 L 2.03125 0 L 1.234375 0 Z M 1.234375 -7.578125 "/></g></g></g><g fill="#ffffff" fill-opacity="1"><g transform="translate(215.36075, 10.579548)"><g><path d="M 4.546875 0.0625 C 3.796875 0.0625 3.113281 -0.101562 2.5 -0.4375 C 1.894531 -0.769531 1.421875 -1.226562 1.078125 -1.8125 C 0.734375 -2.40625 0.5625 -3.066406 0.5625 -3.796875 C 0.5625 -4.523438 0.734375 -5.179688 1.078125 -5.765625 C 1.421875 -6.347656 1.894531 -6.804688 2.5 -7.140625 C 3.113281 -7.472656 3.796875 -7.640625 4.546875 -7.640625 C 5.296875 -7.640625 5.972656 -7.472656 6.578125 -7.140625 C 7.179688 -6.804688 7.65625 -6.347656 8 -5.765625 C 8.34375 -5.179688 8.515625 -4.523438 8.515625 -3.796875 C 8.515625 -3.066406 8.34375 -2.40625 8 -1.8125 C 7.65625 -1.226562 7.179688 -0.769531 6.578125 -0.4375 C 5.972656 -0.101562 5.296875 0.0625 4.546875 0.0625 Z M 4.546875 -0.65625 C 5.148438 -0.65625 5.691406 -0.789062 6.171875 -1.0625 C 6.648438 -1.332031 7.023438 -1.707031 7.296875 -2.1875 C 7.578125 -2.664062 7.71875 -3.203125 7.71875 -3.796875 C 7.71875 -4.378906 7.578125 -4.910156 7.296875 -5.390625 C 7.023438 -5.878906 6.648438 -6.257812 6.171875 -6.53125 C 5.691406 -6.800781 5.148438 -6.9375 4.546875 -6.9375 C 3.953125 -6.9375 3.410156 -6.800781 2.921875 -6.53125 C 2.429688 -6.257812 2.046875 -5.878906 1.765625 -5.390625 C 1.492188 -4.910156 1.359375 -4.378906 1.359375 -3.796875 C 1.359375 -3.203125 1.492188 -2.664062 1.765625 -2.1875 C 2.046875 -1.707031 2.429688 -1.332031 2.921875 -1.0625 C 3.410156 -0.789062 3.953125 -0.65625 4.546875 -0.65625 Z M 4.546875 -0.65625 "/></g></g></g><g fill="#ffffff" fill-opacity="1"><g transform="translate(224.439541, 10.579548)"><g><path d="M 7.5625 -7.578125 L 7.5625 0 L 6.90625 0 L 2.03125 -6.15625 L 2.03125 0 L 1.234375 0 L 1.234375 -7.578125 L 1.890625 -7.578125 L 6.78125 -1.421875 L 6.78125 -7.578125 Z M 7.5625 -7.578125 "/></g></g></g></g></g></svg>